<svg width="22" height="22" xmlns="http://www.w3.org/2000/svg">
 <!-- Generator: Sketch 50.2 (55047) - http://www.bohemiancoding.com/sketch -->
 <title>video</title>
 <desc>Created with Sketch.</desc>

 <g>
  <title>background</title>
  <rect fill="none" id="canvas_background" height="23" width="24" y="-1" x="-1"/>
 </g>
 <g>
  <title>Layer 1</title>
  <g opacity="0.3" fill-rule="evenodd" fill="none" id="Page-1">
   <g stroke="null" fill="#000000" id="REGISTER">
    <g stroke="null" id="video">
     <path stroke="null" id="Shape" d="m18.68618,10.152424l0,-3.768645c0,-0.592216 -0.471492,-1.076756 -1.04776,-1.076756l-12.573112,0c-0.576269,0 -1.04776,0.48454 -1.04776,1.076756l0,10.767557c0,0.592216 0.471492,1.076756 1.04776,1.076756l12.573112,0c0.576269,0 1.04776,-0.48454 1.04776,-1.076756l0,-3.768645l4.191037,4.307023l0,-11.844313l-4.191037,4.307023l0,0z"/>
     <polygon stroke="#FFFFFF" points="4.1118456261400524,4.230267308652401 4.1118456261400524,1 6.186409376900087,1 6.186409376900087,4.230267308652401 9.29825500304014,4.230267308652401 9.29825500304014,6.383778847754002 6.186409376900087,6.383778847754002 6.186409376900087,9.614045524483743 4.1118456261400524,9.614045524483743 4.1118456261400524,6.383778847754002 1,6.383778847754002 1,4.230267308652401 " stroke-width="2" id="Shape"/>
     <polygon stroke="null" points="4.1118456261400524,4.230267308652401 4.1118456261400524,1 6.186409376900087,1 6.186409376900087,4.230267308652401 9.29825500304014,4.230267308652401 9.29825500304014,6.383778847754002 6.186409376900087,6.383778847754002 6.186409376900087,9.614045524483743 4.1118456261400524,9.614045524483743 4.1118456261400524,6.383778847754002 1,6.383778847754002 1,4.230267308652401 " id="Shape"/>
    </g>
   </g>
  </g>
 </g>
</svg>